{
 "cells": [
  {
   "cell_type": "code",
   "execution_count": 2,
   "id": "018ff26c",
   "metadata": {},
   "outputs": [],
   "source": [
    "import mido\n",
    "from mido import Message, MidiFile, MidiTrack,MetaMessage\n",
    "# from mido import MIDITime\n",
    "import os\n",
    "import string\n",
    "import numpy as np\n",
    "import pandas as pd\n",
    "import matplotlib.pyplot as plt"
   ]
  },
  {
   "cell_type": "code",
   "execution_count": 15,
   "id": "2e5933a8",
   "metadata": {
    "scrolled": true
   },
   "outputs": [
    {
     "name": "stdout",
     "output_type": "stream",
     "text": [
      "                    ID  4Q annotator\n",
      "0     Q1_0vLPYiPN7qY_0   1         D\n",
      "1     Q1_0vLPYiPN7qY_1   1         D\n",
      "2     Q1_0vLPYiPN7qY_2   1         D\n",
      "3     Q1_1Qc15G0ZHIg_1   1         D\n",
      "4     Q1_1Qc15G0ZHIg_2   1         D\n",
      "...                ...  ..       ...\n",
      "1073  Q4_xgtwQGeB6_0_0   4         C\n",
      "1074  Q4_xrhWli_R98g_0   4         C\n",
      "1075  Q4_xrhWli_R98g_2   4         C\n",
      "1076  Q4_yC0fAQxGgr0_0   4         C\n",
      "1077  Q4_yC0fAQxGgr0_1   4         C\n",
      "\n",
      "[1078 rows x 3 columns]\n"
     ]
    }
   ],
   "source": [
    "# load data\n",
    "label_pathe = r\"D:\\BrownUnivercity\\CS2470\\final_proj\\motion_to_melody\\data\\EMOPIA_1.0\\label.csv\"\n",
    "label = pd.read_csv(label_pathe)\n",
    "# songs name ; emotion label ; who label"
   ]
  },
  {
   "cell_type": "code",
   "execution_count": 13,
   "id": "e1e990ce",
   "metadata": {},
   "outputs": [
    {
     "name": "stdout",
     "output_type": "stream",
     "text": [
      "Track 0: \n",
      "MetaMessage('set_tempo', tempo=500000, time=0)\n",
      "MetaMessage('time_signature', numerator=4, denominator=4, clocks_per_click=24, notated_32nd_notes_per_beat=8, time=0)\n",
      "MetaMessage('end_of_track', time=1)\n",
      "Track 1: \n",
      "note_on channel=0 note=63 velocity=65 time=151\n",
      "note_on channel=0 note=51 velocity=58 time=5\n",
      "note_on channel=0 note=91 velocity=86 time=3\n",
      "note_on channel=0 note=79 velocity=76 time=5\n",
      "note_on channel=0 note=58 velocity=58 time=0\n",
      "note_on channel=0 note=86 velocity=73 time=149\n",
      "note_on channel=0 note=91 velocity=0 time=32\n",
      "note_on channel=0 note=91 velocity=60 time=6\n",
      "control_change channel=0 control=64 value=127 time=25\n",
      "note_on channel=0 note=86 velocity=0 time=31\n",
      "note_on channel=0 note=86 velocity=76 time=4\n",
      "note_on channel=0 note=79 velocity=0 time=57\n",
      "note_on channel=0 note=79 velocity=72 time=6\n",
      "note_on channel=0 note=58 velocity=0 time=148\n",
      "note_on channel=0 note=74 velocity=82 time=6\n",
      "note_on channel=0 note=58 velocity=60 time=5\n",
      "note_on channel=0 note=67 velocity=54 time=0\n",
      "note_on channel=0 note=67 velocity=0 time=158\n",
      "note_on channel=0 note=67 velocity=75 time=4\n",
      "note_on channel=0 note=79 velocity=0 time=141\n",
      "note_on channel=0 note=79 velocity=87 time=10\n",
      "note_on channel=0 note=58 velocity=0 time=136\n",
      "note_on channel=0 note=46 velocity=65 time=11\n",
      "note_on channel=0 note=58 velocity=65 time=1\n",
      "note_on channel=0 note=53 velocity=67 time=1\n",
      "control_change channel=0 control=64 value=0 time=62\n",
      "control_change channel=0 control=64 value=127 time=25\n",
      "note_on channel=0 note=74 velocity=0 time=62\n",
      "note_on channel=0 note=74 velocity=49 time=10\n",
      "note_on channel=0 note=79 velocity=0 time=20\n",
      "note_on channel=0 note=79 velocity=70 time=10\n",
      "note_on channel=0 note=74 velocity=0 time=60\n",
      "note_on channel=0 note=74 velocity=61 time=4\n",
      "note_on channel=0 note=67 velocity=0 time=57\n",
      "note_on channel=0 note=67 velocity=68 time=11\n",
      "note_on channel=0 note=53 velocity=0 time=112\n",
      "note_on channel=0 note=53 velocity=54 time=9\n",
      "note_on channel=0 note=62 velocity=77 time=35\n",
      "note_on channel=0 note=55 velocity=56 time=134\n",
      "note_on channel=0 note=62 velocity=0 time=91\n",
      "note_on channel=0 note=62 velocity=66 time=8\n",
      "note_on channel=0 note=67 velocity=0 time=91\n",
      "note_on channel=0 note=67 velocity=74 time=5\n",
      "note_on channel=0 note=55 velocity=0 time=118\n",
      "note_on channel=0 note=55 velocity=81 time=8\n",
      "note_on channel=0 note=36 velocity=54 time=2\n",
      "note_on channel=0 note=52 velocity=61 time=2\n",
      "note_on channel=0 note=43 velocity=53 time=0\n",
      "note_on channel=0 note=64 velocity=64 time=2\n",
      "note_on channel=0 note=53 velocity=0 time=52\n",
      "note_on channel=0 note=74 velocity=0 time=3\n",
      "note_on channel=0 note=58 velocity=0 time=0\n",
      "note_on channel=0 note=86 velocity=0 time=0\n",
      "note_on channel=0 note=91 velocity=0 time=0\n",
      "note_on channel=0 note=67 velocity=0 time=1\n",
      "control_change channel=0 control=64 value=0 time=0\n",
      "note_on channel=0 note=51 velocity=0 time=1\n",
      "note_on channel=0 note=62 velocity=0 time=1\n",
      "note_on channel=0 note=63 velocity=0 time=5\n",
      "note_on channel=0 note=46 velocity=0 time=8\n",
      "note_on channel=0 note=79 velocity=0 time=0\n",
      "control_change channel=0 control=64 value=127 time=184\n",
      "note_on channel=0 note=60 velocity=61 time=77\n",
      "note_on channel=0 note=52 velocity=0 time=169\n",
      "note_on channel=0 note=55 velocity=0 time=8\n",
      "note_on channel=0 note=52 velocity=44 time=2\n",
      "note_on channel=0 note=55 velocity=37 time=3\n",
      "note_on channel=0 note=55 velocity=0 time=164\n",
      "note_on channel=0 note=55 velocity=43 time=4\n",
      "note_on channel=0 note=55 velocity=0 time=141\n",
      "note_on channel=0 note=60 velocity=0 time=0\n",
      "note_on channel=0 note=67 velocity=56 time=6\n",
      "note_on channel=0 note=55 velocity=50 time=0\n",
      "note_on channel=0 note=76 velocity=68 time=1\n",
      "note_on channel=0 note=60 velocity=57 time=1\n",
      "note_on channel=0 note=60 velocity=0 time=154\n",
      "note_on channel=0 note=67 velocity=0 time=0\n",
      "note_on channel=0 note=76 velocity=0 time=0\n",
      "note_on channel=0 note=76 velocity=95 time=6\n",
      "note_on channel=0 note=60 velocity=76 time=3\n",
      "note_on channel=0 note=67 velocity=83 time=1\n",
      "note_on channel=0 note=36 velocity=0 time=13\n",
      "note_on channel=0 note=43 velocity=0 time=12\n",
      "control_change channel=0 control=64 value=0 time=22\n",
      "note_on channel=0 note=62 velocity=61 time=93\n",
      "control_change channel=0 control=64 value=127 time=3\n",
      "note_on channel=0 note=77 velocity=71 time=12\n",
      "note_on channel=0 note=60 velocity=0 time=134\n",
      "note_on channel=0 note=60 velocity=47 time=7\n",
      "note_on channel=0 note=55 velocity=0 time=1\n",
      "note_on channel=0 note=64 velocity=0 time=0\n",
      "note_on channel=0 note=55 velocity=52 time=5\n",
      "note_on channel=0 note=79 velocity=71 time=3\n",
      "note_on channel=0 note=64 velocity=57 time=1\n",
      "note_on channel=0 note=79 velocity=0 time=651\n",
      "note_on channel=0 note=51 velocity=63 time=5\n",
      "note_on channel=0 note=91 velocity=94 time=5\n",
      "note_on channel=0 note=58 velocity=58 time=0\n",
      "note_on channel=0 note=79 velocity=84 time=1\n",
      "note_on channel=0 note=64 velocity=0 time=11\n",
      "note_on channel=0 note=76 velocity=0 time=1\n",
      "note_on channel=0 note=52 velocity=0 time=0\n",
      "note_on channel=0 note=60 velocity=0 time=2\n",
      "note_on channel=0 note=77 velocity=0 time=1\n",
      "note_on channel=0 note=62 velocity=0 time=1\n",
      "note_on channel=0 note=55 velocity=0 time=0\n",
      "control_change channel=0 control=64 value=0 time=4\n",
      "note_on channel=0 note=67 velocity=0 time=0\n",
      "note_on channel=0 note=86 velocity=71 time=142\n",
      "control_change channel=0 control=64 value=127 time=12\n",
      "note_on channel=0 note=91 velocity=0 time=23\n",
      "note_on channel=0 note=91 velocity=77 time=10\n",
      "note_on channel=0 note=86 velocity=0 time=44\n",
      "note_on channel=0 note=86 velocity=70 time=5\n",
      "note_on channel=0 note=79 velocity=0 time=64\n",
      "note_on channel=0 note=79 velocity=67 time=7\n",
      "note_on channel=0 note=74 velocity=78 time=127\n",
      "note_on channel=0 note=67 velocity=66 time=5\n",
      "note_on channel=0 note=67 velocity=0 time=137\n",
      "note_on channel=0 note=67 velocity=74 time=11\n",
      "note_on channel=0 note=79 velocity=0 time=135\n",
      "note_on channel=0 note=79 velocity=101 time=9\n",
      "note_on channel=0 note=58 velocity=0 time=145\n",
      "note_on channel=0 note=58 velocity=53 time=6\n",
      "note_on channel=0 note=46 velocity=55 time=3\n",
      "control_change channel=0 control=64 value=0 time=3\n",
      "note_on channel=0 note=51 velocity=0 time=4\n",
      "note_on channel=0 note=74 velocity=0 time=1\n",
      "note_on channel=0 note=53 velocity=53 time=2\n",
      "note_on channel=0 note=86 velocity=0 time=0\n",
      "note_on channel=0 note=91 velocity=0 time=3\n",
      "control_change channel=0 control=64 value=127 time=139\n",
      "note_on channel=0 note=74 velocity=51 time=19\n",
      "note_on channel=0 note=79 velocity=0 time=27\n",
      "note_on channel=0 note=79 velocity=60 time=4\n",
      "note_on channel=0 note=74 velocity=0 time=57\n",
      "note_on channel=0 note=74 velocity=57 time=7\n",
      "note_on channel=0 note=67 velocity=0 time=63\n",
      "note_on channel=0 note=67 velocity=66 time=4\n",
      "note_on channel=0 note=46 velocity=0 time=142\n",
      "note_on channel=0 note=53 velocity=0 time=0\n",
      "note_on channel=0 note=53 velocity=53 time=7\n",
      "note_on channel=0 note=46 velocity=48 time=1\n",
      "note_on channel=0 note=62 velocity=66 time=2\n",
      "note_on channel=0 note=55 velocity=65 time=134\n",
      "note_on channel=0 note=62 velocity=0 time=94\n",
      "note_on channel=0 note=62 velocity=72 time=4\n",
      "note_on channel=0 note=67 velocity=0 time=95\n",
      "note_on channel=0 note=67 velocity=80 time=10\n",
      "note_on channel=0 note=43 velocity=56 time=116\n",
      "note_on channel=0 note=36 velocity=62 time=1\n",
      "note_on channel=0 note=64 velocity=75 time=6\n",
      "note_on channel=0 note=52 velocity=54 time=1\n",
      "note_on channel=0 note=53 velocity=0 time=24\n",
      "note_on channel=0 note=46 velocity=0 time=8\n",
      "control_change channel=0 control=64 value=0 time=3\n",
      "note_on channel=0 note=74 velocity=0 time=7\n",
      "note_on channel=0 note=79 velocity=0 time=2\n",
      "note_on channel=0 note=62 velocity=0 time=1\n",
      "note_on channel=0 note=58 velocity=0 time=13\n",
      "control_change channel=0 control=64 value=127 time=123\n",
      "note_on channel=0 note=60 velocity=59 time=120\n",
      "note_on channel=0 note=52 velocity=0 time=134\n",
      "note_on channel=0 note=55 velocity=0 time=0\n",
      "note_on channel=0 note=52 velocity=37 time=4\n",
      "note_on channel=0 note=55 velocity=35 time=0\n",
      "note_on channel=0 note=55 velocity=0 time=88\n",
      "note_on channel=0 note=55 velocity=30 time=5\n",
      "note_on channel=0 note=67 velocity=0 time=79\n",
      "note_on channel=0 note=67 velocity=46 time=12\n",
      "note_on channel=0 note=60 velocity=0 time=127\n",
      "note_on channel=0 note=60 velocity=49 time=6\n",
      "note_on channel=0 note=76 velocity=80 time=4\n",
      "note_on channel=0 note=60 velocity=0 time=151\n",
      "note_on channel=0 note=60 velocity=76 time=5\n",
      "note_on channel=0 note=67 velocity=0 time=3\n",
      "note_on channel=0 note=76 velocity=0 time=0\n",
      "note_on channel=0 note=76 velocity=89 time=4\n",
      "note_on channel=0 note=67 velocity=87 time=1\n",
      "note_on channel=0 note=36 velocity=0 time=12\n",
      "control_change channel=0 control=64 value=0 time=15\n",
      "control_change channel=0 control=64 value=127 time=160\n",
      "note_on channel=0 note=74 velocity=54 time=129\n",
      "note_on channel=0 note=67 velocity=0 time=1\n",
      "note_on channel=0 note=67 velocity=50 time=6\n",
      "note_on channel=0 note=72 velocity=57 time=143\n",
      "note_on channel=0 note=60 velocity=0 time=158\n",
      "note_on channel=0 note=60 velocity=40 time=11\n",
      "note_on channel=0 note=79 velocity=63 time=153\n",
      "note_on channel=0 note=79 velocity=0 time=136\n",
      "note_on channel=0 note=91 velocity=90 time=4\n",
      "note_on channel=0 note=79 velocity=80 time=2\n",
      "note_on channel=0 note=74 velocity=0 time=0\n",
      "note_on channel=0 note=67 velocity=0 time=1\n",
      "note_on channel=0 note=60 velocity=0 time=0\n",
      "note_on channel=0 note=72 velocity=0 time=2\n",
      "note_on channel=0 note=43 velocity=0 time=6\n",
      "note_on channel=0 note=58 velocity=62 time=1\n",
      "control_change channel=0 control=64 value=0 time=0\n",
      "note_on channel=0 note=51 velocity=54 time=1\n",
      "note_on channel=0 note=52 velocity=0 time=6\n",
      "note_on channel=0 note=64 velocity=0 time=0\n",
      "note_on channel=0 note=76 velocity=0 time=0\n",
      "note_on channel=0 note=55 velocity=0 time=8\n",
      "control_change channel=0 control=64 value=127 time=76\n",
      "note_on channel=0 note=86 velocity=83 time=57\n",
      "note_on channel=0 note=91 velocity=0 time=36\n",
      "note_on channel=0 note=91 velocity=75 time=10\n",
      "note_on channel=0 note=86 velocity=0 time=43\n",
      "note_on channel=0 note=86 velocity=71 time=10\n",
      "note_on channel=0 note=79 velocity=0 time=52\n",
      "note_on channel=0 note=79 velocity=69 time=7\n",
      "note_on channel=0 note=58 velocity=0 time=116\n",
      "note_on channel=0 note=74 velocity=89 time=9\n",
      "note_on channel=0 note=58 velocity=54 time=2\n",
      "note_on channel=0 note=67 velocity=58 time=3\n",
      "note_on channel=0 note=67 velocity=0 time=139\n",
      "note_on channel=0 note=67 velocity=75 time=6\n",
      "note_on channel=0 note=79 velocity=0 time=132\n",
      "note_on channel=0 note=79 velocity=87 time=11\n",
      "note_on channel=0 note=58 velocity=0 time=128\n",
      "note_on channel=0 note=58 velocity=57 time=11\n",
      "note_on channel=0 note=53 velocity=53 time=1\n",
      "note_on channel=0 note=67 velocity=0 time=72\n",
      "note_on channel=0 note=67 velocity=41 time=6\n",
      "note_on channel=0 note=74 velocity=0 time=56\n",
      "note_on channel=0 note=74 velocity=48 time=6\n",
      "note_on channel=0 note=79 velocity=0 time=40\n",
      "note_on channel=0 note=79 velocity=68 time=8\n",
      "note_on channel=0 note=74 velocity=0 time=61\n",
      "note_on channel=0 note=74 velocity=59 time=7\n",
      "note_on channel=0 note=67 velocity=0 time=62\n",
      "note_on channel=0 note=67 velocity=69 time=8\n",
      "note_on channel=0 note=53 velocity=0 time=130\n",
      "note_on channel=0 note=53 velocity=53 time=9\n",
      "note_on channel=0 note=62 velocity=73 time=9\n",
      "note_on channel=0 note=55 velocity=66 time=131\n",
      "note_on channel=0 note=62 velocity=0 time=89\n",
      "note_on channel=0 note=62 velocity=65 time=10\n",
      "note_on channel=0 note=67 velocity=0 time=98\n",
      "note_on channel=0 note=67 velocity=75 time=9\n",
      "note_on channel=0 note=53 velocity=0 time=103\n",
      "note_on channel=0 note=79 velocity=0 time=1\n",
      "note_on channel=0 note=58 velocity=0 time=2\n",
      "note_on channel=0 note=62 velocity=0 time=0\n",
      "note_on channel=0 note=86 velocity=0 time=1\n",
      "note_on channel=0 note=51 velocity=0 time=0\n",
      "note_on channel=0 note=74 velocity=0 time=0\n",
      "note_on channel=0 note=52 velocity=59 time=2\n",
      "note_on channel=0 note=43 velocity=55 time=1\n",
      "note_on channel=0 note=36 velocity=56 time=0\n",
      "note_on channel=0 note=91 velocity=0 time=4\n",
      "note_on channel=0 note=64 velocity=75 time=3\n",
      "control_change channel=0 control=64 value=0 time=41\n",
      "control_change channel=0 control=64 value=127 time=79\n",
      "note_on channel=0 note=60 velocity=59 time=191\n",
      "note_on channel=0 note=52 velocity=0 time=131\n",
      "note_on channel=0 note=52 velocity=46 time=4\n",
      "note_on channel=0 note=67 velocity=0 time=180\n",
      "note_on channel=0 note=67 velocity=68 time=9\n",
      "note_on channel=0 note=55 velocity=0 time=130\n",
      "note_on channel=0 note=60 velocity=0 time=0\n",
      "note_on channel=0 note=67 velocity=0 time=0\n",
      "note_on channel=0 note=67 velocity=57 time=5\n",
      "note_on channel=0 note=55 velocity=46 time=2\n",
      "note_on channel=0 note=76 velocity=72 time=3\n",
      "note_on channel=0 note=60 velocity=48 time=1\n",
      "note_on channel=0 note=60 velocity=0 time=142\n",
      "note_on channel=0 note=67 velocity=0 time=0\n",
      "note_on channel=0 note=76 velocity=0 time=0\n",
      "note_on channel=0 note=76 velocity=77 time=5\n",
      "note_on channel=0 note=60 velocity=63 time=0\n",
      "note_on channel=0 note=67 velocity=71 time=1\n",
      "note_on channel=0 note=64 velocity=0 time=140\n",
      "note_on channel=0 note=64 velocity=50 time=8\n",
      "note_on channel=0 note=77 velocity=76 time=2\n",
      "note_on channel=0 note=62 velocity=56 time=1\n",
      "note_on channel=0 note=55 velocity=0 time=127\n",
      "note_on channel=0 note=60 velocity=0 time=0\n",
      "note_on channel=0 note=60 velocity=41 time=5\n",
      "note_on channel=0 note=55 velocity=45 time=3\n",
      "note_on channel=0 note=64 velocity=0 time=0\n",
      "note_on channel=0 note=79 velocity=71 time=4\n",
      "note_on channel=0 note=64 velocity=51 time=1\n",
      "note_on channel=0 note=67 velocity=0 time=295\n",
      "note_on channel=0 note=67 velocity=67 time=9\n",
      "note_on channel=0 note=58 velocity=58 time=150\n",
      "note_on channel=0 note=79 velocity=0 time=140\n",
      "note_on channel=0 note=63 velocity=75 time=4\n",
      "note_on channel=0 note=51 velocity=66 time=1\n",
      "note_on channel=0 note=91 velocity=89 time=4\n",
      "note_on channel=0 note=79 velocity=85 time=1\n",
      "note_on channel=0 note=43 velocity=0 time=0\n",
      "note_on channel=0 note=64 velocity=0 time=0\n",
      "note_on channel=0 note=76 velocity=0 time=1\n",
      "note_on channel=0 note=77 velocity=0 time=0\n",
      "note_on channel=0 note=52 velocity=0 time=0\n",
      "note_on channel=0 note=60 velocity=0 time=1\n",
      "note_on channel=0 note=67 velocity=0 time=0\n",
      "note_on channel=0 note=62 velocity=0 time=0\n",
      "note_on channel=0 note=55 velocity=0 time=1\n",
      "control_change channel=0 control=64 value=0 time=7\n",
      "note_on channel=0 note=36 velocity=0 time=3\n",
      "control_change channel=0 control=64 value=127 time=115\n",
      "note_on channel=0 note=86 velocity=83 time=34\n",
      "note_on channel=0 note=91 velocity=0 time=28\n",
      "note_on channel=0 note=91 velocity=69 time=7\n",
      "note_on channel=0 note=86 velocity=0 time=54\n",
      "note_on channel=0 note=86 velocity=70 time=5\n",
      "note_on channel=0 note=79 velocity=0 time=41\n",
      "note_on channel=0 note=79 velocity=85 time=11\n",
      "note_on channel=0 note=67 velocity=60 time=127\n",
      "note_on channel=0 note=74 velocity=69 time=0\n",
      "note_on channel=0 note=67 velocity=0 time=139\n",
      "note_on channel=0 note=67 velocity=73 time=9\n",
      "note_on channel=0 note=79 velocity=0 time=137\n",
      "note_on channel=0 note=79 velocity=87 time=10\n",
      "note_on channel=0 note=58 velocity=0 time=128\n",
      "note_on channel=0 note=46 velocity=63 time=4\n",
      "note_on channel=0 note=58 velocity=58 time=7\n",
      "note_on channel=0 note=53 velocity=59 time=2\n",
      "note_on channel=0 note=51 velocity=0 time=12\n",
      "control_change channel=0 control=64 value=0 time=3\n",
      "note_on channel=0 note=74 velocity=0 time=5\n",
      "control_change channel=0 control=64 value=127 time=98\n",
      "note_on channel=0 note=74 velocity=51 time=26\n",
      "note_on channel=0 note=91 velocity=0 time=4\n",
      "note_on channel=0 note=79 velocity=0 time=31\n",
      "note_on channel=0 note=79 velocity=68 time=7\n",
      "note_on channel=0 note=86 velocity=0 time=39\n",
      "note_on channel=0 note=74 velocity=0 time=8\n",
      "note_on channel=0 note=74 velocity=57 time=10\n",
      "note_on channel=0 note=67 velocity=0 time=44\n",
      "note_on channel=0 note=67 velocity=65 time=10\n",
      "note_on channel=0 note=53 velocity=0 time=135\n",
      "note_on channel=0 note=53 velocity=54 time=5\n",
      "note_on channel=0 note=62 velocity=66 time=7\n",
      "note_on channel=0 note=55 velocity=58 time=137\n",
      "note_on channel=0 note=62 velocity=0 time=90\n",
      "note_on channel=0 note=62 velocity=57 time=6\n",
      "note_on channel=0 note=67 velocity=0 time=93\n",
      "note_on channel=0 note=67 velocity=70 time=11\n",
      "note_on channel=0 note=55 velocity=0 time=135\n",
      "note_on channel=0 note=43 velocity=37 time=1\n",
      "note_on channel=0 note=36 velocity=41 time=2\n",
      "note_on channel=0 note=52 velocity=44 time=0\n",
      "note_on channel=0 note=64 velocity=55 time=6\n",
      "note_on channel=0 note=55 velocity=41 time=2\n",
      "note_on channel=0 note=63 velocity=0 time=28\n",
      "note_on channel=0 note=53 velocity=0 time=1\n",
      "note_on channel=0 note=74 velocity=0 time=1\n",
      "note_on channel=0 note=58 velocity=0 time=0\n",
      "note_on channel=0 note=46 velocity=0 time=0\n",
      "control_change channel=0 control=64 value=0 time=1\n",
      "note_on channel=0 note=62 velocity=0 time=0\n",
      "note_on channel=0 note=79 velocity=0 time=27\n",
      "note_on channel=0 note=36 velocity=0 time=2174\n",
      "note_on channel=0 note=43 velocity=0 time=0\n",
      "note_on channel=0 note=52 velocity=0 time=0\n",
      "note_on channel=0 note=55 velocity=0 time=0\n",
      "note_on channel=0 note=64 velocity=0 time=0\n",
      "note_on channel=0 note=67 velocity=0 time=0\n",
      "MetaMessage('end_of_track', time=1)\n"
     ]
    }
   ],
   "source": [
    "# Path to your MIDI file\n",
    "midi_file_path = r'D:\\BrownUniversity\\CS2470\\final_proj\\CS2470_final\\data\\test\\Q1_0vLPYiPN7qY_0.mid'\n",
    "\n",
    "# Load the MIDI file\n",
    "mid = mido.MidiFile(midi_file_path)\n",
    "\n",
    "# Iterate over all messages in all tracks\n",
    "for i, track in enumerate(mid.tracks):\n",
    "    print(f'Track {i}: {track.name}')\n",
    "    for msg in track:\n",
    "        print(msg)"
   ]
  },
  {
   "cell_type": "code",
   "execution_count": 3,
   "id": "590c5776",
   "metadata": {},
   "outputs": [],
   "source": [
    "\n",
    "def get_song_msg(mid):\n",
    "    one_song_msg = []\n",
    "    for msg in mid.tracks[1]:\n",
    "        if msg.type == 'note_on':\n",
    "            note = msg.note\n",
    "            velocity = msg.velocity\n",
    "            time = msg.time\n",
    "            temp = [note,velocity,time]\n",
    "            one_song_msg.append(temp)\n",
    "    return one_song_msg\n",
    "\n",
    "    # print(len(one_song_msg))\n",
    "\n",
    "\n"
   ]
  },
  {
   "cell_type": "code",
   "execution_count": 44,
   "id": "f8f46480",
   "metadata": {},
   "outputs": [],
   "source": [
    "# get emotion label\n",
    "def get_emo(label, target):\n",
    "    for i in range(len(label)):\n",
    "        if label.iloc[i,0] == target:\n",
    "            return label.iloc[i,1]\n",
    "\n",
    "\n",
    "def get_label(label_path):\n",
    "    label = pd.read_csv(label_path, delimiter='\\t')\n",
    "    # seperate the first column\n",
    "    label[['name', '4Q', 'annotator']] = label['ID,4Q,annotator'].str.split(',', expand=True)\n",
    "    # drop the original column\n",
    "    label.drop(columns=['ID,4Q,annotator'], inplace=True) \n",
    "    return label"
   ]
  },
  {
   "cell_type": "code",
   "execution_count": 45,
   "id": "e6d099d7",
   "metadata": {},
   "outputs": [],
   "source": [
    "\n",
    "# label path     \n",
    "label_path = r'D:\\BrownUniversity\\CS2470\\final_proj\\CS2470_final\\data\\label.csv'\n",
    "# music folder path\n",
    "folder_path = r'D:\\BrownUniversity\\CS2470\\final_proj\\CS2470_final\\data\\test'\n",
    "\n",
    "# def get_music_data(folder_path, label_path):\n",
    "#     music_data = []\n",
    "#     label_data = []\n",
    "#     for file_name in os.listdir(folder_path):\n",
    "#         # Check if the file is a MIDI file\n",
    "#         if file_name.endswith('.mid'):\n",
    "#             # Construct the full path to the MIDI file\n",
    "#             midi_file_path = os.path.join(folder_path, file_name)\n",
    "            \n",
    "#             # Load the MIDI file\n",
    "#             mid = MidiFile(midi_file_path)\n",
    "#             song_msg = get_song_msg(mid)\n",
    "\n",
    "#         music_data.append(song_msg)\n",
    "#         # label\n",
    "#         filename_without_extension = os.path.splitext(file_name)[0]\n",
    "#         labels = get_label(label_path)\n",
    "#         # print(labels)\n",
    "#         emo = get_emo(labels, filename_without_extension )\n",
    "#         label_data.append(emo)\n",
    "\n",
    "#     return music_data,label_data\n",
    "\n",
    "def get_music_data(folder_path, label_path):\n",
    "    music_data = []\n",
    "    label_data = []\n",
    "    align_length = 500\n",
    "    for file_name in os.listdir(folder_path):\n",
    "        # Check if the file is a MIDI file\n",
    "        if file_name.endswith('.mid'):\n",
    "            # Construct the full path to the MIDI file\n",
    "            midi_file_path = os.path.join(folder_path, file_name)\n",
    "            # Load the MIDI file\n",
    "            mid = MidiFile(midi_file_path)\n",
    "            song_msg = get_song_msg(mid)\n",
    "\n",
    "        if len(song_msg) > align_length:\n",
    "            result_array = song_msg[:align_length]\n",
    "        else:\n",
    "            num_to_pad = align_length - len(song_msg)\n",
    "            result_array = np.pad(song_msg, ((0, num_to_pad), (0, 0)), mode='constant') \n",
    "\n",
    "        music_data.append(result_array)\n",
    "        # label\n",
    "        filename_without_extension = os.path.splitext(file_name)[0]\n",
    "        labels = get_label(label_path)\n",
    "        emo = get_emo(labels, filename_without_extension )\n",
    "        label_data.append(emo)\n",
    "\n",
    "    return music_data,label_data\n",
    "    \n",
    "\n"
   ]
  },
  {
   "cell_type": "code",
   "execution_count": 46,
   "id": "708f0430",
   "metadata": {},
   "outputs": [],
   "source": [
    "music,label = get_music_data(folder_path, label_path)"
   ]
  },
  {
   "cell_type": "code",
   "execution_count": 47,
   "id": "c22e8c4d",
   "metadata": {},
   "outputs": [],
   "source": [
    "# aab = []\n",
    "# for i in range(len(music)):\n",
    "#     aab.append(len(music[i]))\n",
    "\n",
    "# plt.hist(aab)\n",
    "\n"
   ]
  },
  {
   "cell_type": "code",
   "execution_count": 48,
   "id": "a2576dca",
   "metadata": {},
   "outputs": [
    {
     "name": "stdout",
     "output_type": "stream",
     "text": [
      "[[ 63  65 151]\n",
      " [ 51  58   5]\n",
      " [ 91  86   3]\n",
      " ...\n",
      " [  0   0   0]\n",
      " [  0   0   0]\n",
      " [  0   0   0]]\n"
     ]
    }
   ],
   "source": [
    "print(music[0])"
   ]
  },
  {
   "cell_type": "code",
   "execution_count": 11,
   "id": "26e4d211",
   "metadata": {},
   "outputs": [],
   "source": [
    "def get_midi(events, output_file):\n",
    "    mid = mido.MidiFile()\n",
    "    track = mido.MidiTrack()\n",
    "\n",
    "    # Set the tempo to default 120 BPM\n",
    "    track.append(mido.MetaMessage('set_tempo', tempo=500000))\n",
    "\n",
    "    # Iterate through the events and convert them to MIDI messages\n",
    "    for event in events:\n",
    "        note, velocity, time = event\n",
    "        # Create a note_on message\n",
    "        note_on = mido.Message('note_on', note=note, velocity=velocity, time=time)\n",
    "        track.append(note_on)\n",
    "\n",
    "    # Add the track to the MIDI file\n",
    "    mid.tracks.append(track)\n",
    "\n",
    "    # Save the MIDI file\n",
    "    mid.save(output_file)\n",
    "\n",
    "# MIDI events / list format\n",
    "events = [[63, 65, 151], [51, 58, 5], [91, 86, 3], [79, 76, 5], [58, 58, 0],\n",
    "           [86, 73, 149], [91, 0, 32], [91, 60, 6], [86, 0, 31], [86, 76, 4], [79, 0, 57],\n",
    "             [79, 72, 6], [58, 0, 148], [74, 82, 6], [58, 60, 5], [67, 54, 0], [67, 0, 158], \n",
    "             [67, 75, 4], [79, 0, 141], [79, 87, 10]]\n",
    "\n",
    "# Output MIDI file name\n",
    "output_file = \"output_1.mid\"\n",
    "\n",
    "# Reconstruct MIDI and save to file\n",
    "get_midi(events, output_file)\n"
   ]
  },
  {
   "cell_type": "code",
   "execution_count": 25,
   "id": "47f4caf4",
   "metadata": {},
   "outputs": [
    {
     "name": "stdout",
     "output_type": "stream",
     "text": [
      "Track 0: \n",
      "MetaMessage('set_tempo', tempo=500000, time=0)\n",
      "MetaMessage('time_signature', numerator=4, denominator=4, clocks_per_click=24, notated_32nd_notes_per_beat=8, time=0)\n",
      "MetaMessage('end_of_track', time=1)\n",
      "Track 1: \n",
      "note_on channel=0 note=63 velocity=65 time=151\n",
      "note_on channel=0 note=51 velocity=58 time=5\n",
      "note_on channel=0 note=91 velocity=86 time=3\n",
      "note_on channel=0 note=79 velocity=76 time=5\n",
      "note_on channel=0 note=58 velocity=58 time=0\n",
      "note_on channel=0 note=86 velocity=73 time=149\n",
      "note_on channel=0 note=91 velocity=0 time=32\n",
      "note_on channel=0 note=91 velocity=60 time=6\n",
      "control_change channel=0 control=64 value=127 time=25\n",
      "note_on channel=0 note=86 velocity=0 time=31\n",
      "note_on channel=0 note=86 velocity=76 time=4\n",
      "note_on channel=0 note=79 velocity=0 time=57\n",
      "note_on channel=0 note=79 velocity=72 time=6\n",
      "note_on channel=0 note=58 velocity=0 time=148\n",
      "note_on channel=0 note=74 velocity=82 time=6\n",
      "note_on channel=0 note=58 velocity=60 time=5\n",
      "note_on channel=0 note=67 velocity=54 time=0\n",
      "note_on channel=0 note=67 velocity=0 time=158\n",
      "note_on channel=0 note=67 velocity=75 time=4\n",
      "note_on channel=0 note=79 velocity=0 time=141\n",
      "note_on channel=0 note=79 velocity=87 time=10\n",
      "note_on channel=0 note=58 velocity=0 time=136\n",
      "note_on channel=0 note=46 velocity=65 time=11\n",
      "note_on channel=0 note=58 velocity=65 time=1\n",
      "note_on channel=0 note=53 velocity=67 time=1\n",
      "control_change channel=0 control=64 value=0 time=62\n",
      "control_change channel=0 control=64 value=127 time=25\n",
      "note_on channel=0 note=74 velocity=0 time=62\n",
      "note_on channel=0 note=74 velocity=49 time=10\n",
      "note_on channel=0 note=79 velocity=0 time=20\n",
      "note_on channel=0 note=79 velocity=70 time=10\n",
      "note_on channel=0 note=74 velocity=0 time=60\n",
      "note_on channel=0 note=74 velocity=61 time=4\n",
      "note_on channel=0 note=67 velocity=0 time=57\n",
      "note_on channel=0 note=67 velocity=68 time=11\n",
      "note_on channel=0 note=53 velocity=0 time=112\n",
      "note_on channel=0 note=53 velocity=54 time=9\n",
      "note_on channel=0 note=62 velocity=77 time=35\n",
      "note_on channel=0 note=55 velocity=56 time=134\n",
      "note_on channel=0 note=62 velocity=0 time=91\n",
      "note_on channel=0 note=62 velocity=66 time=8\n",
      "note_on channel=0 note=67 velocity=0 time=91\n",
      "note_on channel=0 note=67 velocity=74 time=5\n",
      "note_on channel=0 note=55 velocity=0 time=118\n",
      "note_on channel=0 note=55 velocity=81 time=8\n",
      "note_on channel=0 note=36 velocity=54 time=2\n",
      "note_on channel=0 note=52 velocity=61 time=2\n",
      "note_on channel=0 note=43 velocity=53 time=0\n",
      "note_on channel=0 note=64 velocity=64 time=2\n",
      "note_on channel=0 note=53 velocity=0 time=52\n",
      "note_on channel=0 note=74 velocity=0 time=3\n",
      "note_on channel=0 note=58 velocity=0 time=0\n",
      "note_on channel=0 note=86 velocity=0 time=0\n",
      "note_on channel=0 note=91 velocity=0 time=0\n",
      "note_on channel=0 note=67 velocity=0 time=1\n",
      "control_change channel=0 control=64 value=0 time=0\n",
      "note_on channel=0 note=51 velocity=0 time=1\n",
      "note_on channel=0 note=62 velocity=0 time=1\n",
      "note_on channel=0 note=63 velocity=0 time=5\n",
      "note_on channel=0 note=46 velocity=0 time=8\n",
      "note_on channel=0 note=79 velocity=0 time=0\n",
      "control_change channel=0 control=64 value=127 time=184\n",
      "note_on channel=0 note=60 velocity=61 time=77\n",
      "note_on channel=0 note=52 velocity=0 time=169\n",
      "note_on channel=0 note=55 velocity=0 time=8\n",
      "note_on channel=0 note=52 velocity=44 time=2\n",
      "note_on channel=0 note=55 velocity=37 time=3\n",
      "note_on channel=0 note=55 velocity=0 time=164\n",
      "note_on channel=0 note=55 velocity=43 time=4\n",
      "note_on channel=0 note=55 velocity=0 time=141\n",
      "note_on channel=0 note=60 velocity=0 time=0\n",
      "note_on channel=0 note=67 velocity=56 time=6\n",
      "note_on channel=0 note=55 velocity=50 time=0\n",
      "note_on channel=0 note=76 velocity=68 time=1\n",
      "note_on channel=0 note=60 velocity=57 time=1\n",
      "note_on channel=0 note=60 velocity=0 time=154\n",
      "note_on channel=0 note=67 velocity=0 time=0\n",
      "note_on channel=0 note=76 velocity=0 time=0\n",
      "note_on channel=0 note=76 velocity=95 time=6\n",
      "note_on channel=0 note=60 velocity=76 time=3\n",
      "note_on channel=0 note=67 velocity=83 time=1\n",
      "note_on channel=0 note=36 velocity=0 time=13\n",
      "note_on channel=0 note=43 velocity=0 time=12\n",
      "control_change channel=0 control=64 value=0 time=22\n",
      "note_on channel=0 note=62 velocity=61 time=93\n",
      "control_change channel=0 control=64 value=127 time=3\n",
      "note_on channel=0 note=77 velocity=71 time=12\n",
      "note_on channel=0 note=60 velocity=0 time=134\n",
      "note_on channel=0 note=60 velocity=47 time=7\n",
      "note_on channel=0 note=55 velocity=0 time=1\n",
      "note_on channel=0 note=64 velocity=0 time=0\n",
      "note_on channel=0 note=55 velocity=52 time=5\n",
      "note_on channel=0 note=79 velocity=71 time=3\n",
      "note_on channel=0 note=64 velocity=57 time=1\n",
      "note_on channel=0 note=79 velocity=0 time=651\n",
      "note_on channel=0 note=51 velocity=63 time=5\n",
      "note_on channel=0 note=91 velocity=94 time=5\n",
      "note_on channel=0 note=58 velocity=58 time=0\n",
      "note_on channel=0 note=79 velocity=84 time=1\n",
      "note_on channel=0 note=64 velocity=0 time=11\n",
      "note_on channel=0 note=76 velocity=0 time=1\n",
      "note_on channel=0 note=52 velocity=0 time=0\n",
      "note_on channel=0 note=60 velocity=0 time=2\n",
      "note_on channel=0 note=77 velocity=0 time=1\n",
      "note_on channel=0 note=62 velocity=0 time=1\n",
      "note_on channel=0 note=55 velocity=0 time=0\n",
      "control_change channel=0 control=64 value=0 time=4\n",
      "note_on channel=0 note=67 velocity=0 time=0\n",
      "note_on channel=0 note=86 velocity=71 time=142\n",
      "control_change channel=0 control=64 value=127 time=12\n",
      "note_on channel=0 note=91 velocity=0 time=23\n",
      "note_on channel=0 note=91 velocity=77 time=10\n",
      "note_on channel=0 note=86 velocity=0 time=44\n",
      "note_on channel=0 note=86 velocity=70 time=5\n",
      "note_on channel=0 note=79 velocity=0 time=64\n",
      "note_on channel=0 note=79 velocity=67 time=7\n",
      "note_on channel=0 note=74 velocity=78 time=127\n",
      "note_on channel=0 note=67 velocity=66 time=5\n",
      "note_on channel=0 note=67 velocity=0 time=137\n",
      "note_on channel=0 note=67 velocity=74 time=11\n",
      "note_on channel=0 note=79 velocity=0 time=135\n",
      "note_on channel=0 note=79 velocity=101 time=9\n",
      "note_on channel=0 note=58 velocity=0 time=145\n",
      "note_on channel=0 note=58 velocity=53 time=6\n",
      "note_on channel=0 note=46 velocity=55 time=3\n",
      "control_change channel=0 control=64 value=0 time=3\n",
      "note_on channel=0 note=51 velocity=0 time=4\n",
      "note_on channel=0 note=74 velocity=0 time=1\n",
      "note_on channel=0 note=53 velocity=53 time=2\n",
      "note_on channel=0 note=86 velocity=0 time=0\n",
      "note_on channel=0 note=91 velocity=0 time=3\n",
      "control_change channel=0 control=64 value=127 time=139\n",
      "note_on channel=0 note=74 velocity=51 time=19\n",
      "note_on channel=0 note=79 velocity=0 time=27\n",
      "note_on channel=0 note=79 velocity=60 time=4\n",
      "note_on channel=0 note=74 velocity=0 time=57\n",
      "note_on channel=0 note=74 velocity=57 time=7\n",
      "note_on channel=0 note=67 velocity=0 time=63\n",
      "note_on channel=0 note=67 velocity=66 time=4\n",
      "note_on channel=0 note=46 velocity=0 time=142\n",
      "note_on channel=0 note=53 velocity=0 time=0\n",
      "note_on channel=0 note=53 velocity=53 time=7\n",
      "note_on channel=0 note=46 velocity=48 time=1\n",
      "note_on channel=0 note=62 velocity=66 time=2\n",
      "note_on channel=0 note=55 velocity=65 time=134\n",
      "note_on channel=0 note=62 velocity=0 time=94\n",
      "note_on channel=0 note=62 velocity=72 time=4\n",
      "note_on channel=0 note=67 velocity=0 time=95\n",
      "note_on channel=0 note=67 velocity=80 time=10\n",
      "note_on channel=0 note=43 velocity=56 time=116\n",
      "note_on channel=0 note=36 velocity=62 time=1\n",
      "note_on channel=0 note=64 velocity=75 time=6\n",
      "note_on channel=0 note=52 velocity=54 time=1\n",
      "note_on channel=0 note=53 velocity=0 time=24\n",
      "note_on channel=0 note=46 velocity=0 time=8\n",
      "control_change channel=0 control=64 value=0 time=3\n",
      "note_on channel=0 note=74 velocity=0 time=7\n",
      "note_on channel=0 note=79 velocity=0 time=2\n",
      "note_on channel=0 note=62 velocity=0 time=1\n",
      "note_on channel=0 note=58 velocity=0 time=13\n",
      "control_change channel=0 control=64 value=127 time=123\n",
      "note_on channel=0 note=60 velocity=59 time=120\n",
      "note_on channel=0 note=52 velocity=0 time=134\n",
      "note_on channel=0 note=55 velocity=0 time=0\n",
      "note_on channel=0 note=52 velocity=37 time=4\n",
      "note_on channel=0 note=55 velocity=35 time=0\n",
      "note_on channel=0 note=55 velocity=0 time=88\n",
      "note_on channel=0 note=55 velocity=30 time=5\n",
      "note_on channel=0 note=67 velocity=0 time=79\n",
      "note_on channel=0 note=67 velocity=46 time=12\n",
      "note_on channel=0 note=60 velocity=0 time=127\n",
      "note_on channel=0 note=60 velocity=49 time=6\n",
      "note_on channel=0 note=76 velocity=80 time=4\n",
      "note_on channel=0 note=60 velocity=0 time=151\n",
      "note_on channel=0 note=60 velocity=76 time=5\n",
      "note_on channel=0 note=67 velocity=0 time=3\n",
      "note_on channel=0 note=76 velocity=0 time=0\n",
      "note_on channel=0 note=76 velocity=89 time=4\n",
      "note_on channel=0 note=67 velocity=87 time=1\n",
      "note_on channel=0 note=36 velocity=0 time=12\n",
      "control_change channel=0 control=64 value=0 time=15\n",
      "control_change channel=0 control=64 value=127 time=160\n",
      "note_on channel=0 note=74 velocity=54 time=129\n",
      "note_on channel=0 note=67 velocity=0 time=1\n",
      "note_on channel=0 note=67 velocity=50 time=6\n",
      "note_on channel=0 note=72 velocity=57 time=143\n",
      "note_on channel=0 note=60 velocity=0 time=158\n",
      "note_on channel=0 note=60 velocity=40 time=11\n",
      "note_on channel=0 note=79 velocity=63 time=153\n",
      "note_on channel=0 note=79 velocity=0 time=136\n",
      "note_on channel=0 note=91 velocity=90 time=4\n",
      "note_on channel=0 note=79 velocity=80 time=2\n",
      "note_on channel=0 note=74 velocity=0 time=0\n",
      "note_on channel=0 note=67 velocity=0 time=1\n",
      "note_on channel=0 note=60 velocity=0 time=0\n",
      "note_on channel=0 note=72 velocity=0 time=2\n",
      "note_on channel=0 note=43 velocity=0 time=6\n",
      "note_on channel=0 note=58 velocity=62 time=1\n",
      "control_change channel=0 control=64 value=0 time=0\n",
      "note_on channel=0 note=51 velocity=54 time=1\n",
      "note_on channel=0 note=52 velocity=0 time=6\n",
      "note_on channel=0 note=64 velocity=0 time=0\n",
      "note_on channel=0 note=76 velocity=0 time=0\n",
      "note_on channel=0 note=55 velocity=0 time=8\n",
      "control_change channel=0 control=64 value=127 time=76\n",
      "note_on channel=0 note=86 velocity=83 time=57\n",
      "note_on channel=0 note=91 velocity=0 time=36\n",
      "note_on channel=0 note=91 velocity=75 time=10\n",
      "note_on channel=0 note=86 velocity=0 time=43\n",
      "note_on channel=0 note=86 velocity=71 time=10\n",
      "note_on channel=0 note=79 velocity=0 time=52\n",
      "note_on channel=0 note=79 velocity=69 time=7\n",
      "note_on channel=0 note=58 velocity=0 time=116\n",
      "note_on channel=0 note=74 velocity=89 time=9\n",
      "note_on channel=0 note=58 velocity=54 time=2\n",
      "note_on channel=0 note=67 velocity=58 time=3\n",
      "note_on channel=0 note=67 velocity=0 time=139\n",
      "note_on channel=0 note=67 velocity=75 time=6\n",
      "note_on channel=0 note=79 velocity=0 time=132\n",
      "note_on channel=0 note=79 velocity=87 time=11\n",
      "note_on channel=0 note=58 velocity=0 time=128\n",
      "note_on channel=0 note=58 velocity=57 time=11\n",
      "note_on channel=0 note=53 velocity=53 time=1\n",
      "note_on channel=0 note=67 velocity=0 time=72\n",
      "note_on channel=0 note=67 velocity=41 time=6\n",
      "note_on channel=0 note=74 velocity=0 time=56\n",
      "note_on channel=0 note=74 velocity=48 time=6\n",
      "note_on channel=0 note=79 velocity=0 time=40\n",
      "note_on channel=0 note=79 velocity=68 time=8\n",
      "note_on channel=0 note=74 velocity=0 time=61\n",
      "note_on channel=0 note=74 velocity=59 time=7\n",
      "note_on channel=0 note=67 velocity=0 time=62\n",
      "note_on channel=0 note=67 velocity=69 time=8\n",
      "note_on channel=0 note=53 velocity=0 time=130\n",
      "note_on channel=0 note=53 velocity=53 time=9\n",
      "note_on channel=0 note=62 velocity=73 time=9\n",
      "note_on channel=0 note=55 velocity=66 time=131\n",
      "note_on channel=0 note=62 velocity=0 time=89\n",
      "note_on channel=0 note=62 velocity=65 time=10\n",
      "note_on channel=0 note=67 velocity=0 time=98\n",
      "note_on channel=0 note=67 velocity=75 time=9\n",
      "note_on channel=0 note=53 velocity=0 time=103\n",
      "note_on channel=0 note=79 velocity=0 time=1\n",
      "note_on channel=0 note=58 velocity=0 time=2\n",
      "note_on channel=0 note=62 velocity=0 time=0\n",
      "note_on channel=0 note=86 velocity=0 time=1\n",
      "note_on channel=0 note=51 velocity=0 time=0\n",
      "note_on channel=0 note=74 velocity=0 time=0\n",
      "note_on channel=0 note=52 velocity=59 time=2\n",
      "note_on channel=0 note=43 velocity=55 time=1\n",
      "note_on channel=0 note=36 velocity=56 time=0\n",
      "note_on channel=0 note=91 velocity=0 time=4\n",
      "note_on channel=0 note=64 velocity=75 time=3\n",
      "control_change channel=0 control=64 value=0 time=41\n",
      "control_change channel=0 control=64 value=127 time=79\n",
      "note_on channel=0 note=60 velocity=59 time=191\n",
      "note_on channel=0 note=52 velocity=0 time=131\n",
      "note_on channel=0 note=52 velocity=46 time=4\n",
      "note_on channel=0 note=67 velocity=0 time=180\n",
      "note_on channel=0 note=67 velocity=68 time=9\n",
      "note_on channel=0 note=55 velocity=0 time=130\n",
      "note_on channel=0 note=60 velocity=0 time=0\n",
      "note_on channel=0 note=67 velocity=0 time=0\n",
      "note_on channel=0 note=67 velocity=57 time=5\n",
      "note_on channel=0 note=55 velocity=46 time=2\n",
      "note_on channel=0 note=76 velocity=72 time=3\n",
      "note_on channel=0 note=60 velocity=48 time=1\n",
      "note_on channel=0 note=60 velocity=0 time=142\n",
      "note_on channel=0 note=67 velocity=0 time=0\n",
      "note_on channel=0 note=76 velocity=0 time=0\n",
      "note_on channel=0 note=76 velocity=77 time=5\n",
      "note_on channel=0 note=60 velocity=63 time=0\n",
      "note_on channel=0 note=67 velocity=71 time=1\n",
      "note_on channel=0 note=64 velocity=0 time=140\n",
      "note_on channel=0 note=64 velocity=50 time=8\n",
      "note_on channel=0 note=77 velocity=76 time=2\n",
      "note_on channel=0 note=62 velocity=56 time=1\n",
      "note_on channel=0 note=55 velocity=0 time=127\n",
      "note_on channel=0 note=60 velocity=0 time=0\n",
      "note_on channel=0 note=60 velocity=41 time=5\n",
      "note_on channel=0 note=55 velocity=45 time=3\n",
      "note_on channel=0 note=64 velocity=0 time=0\n",
      "note_on channel=0 note=79 velocity=71 time=4\n",
      "note_on channel=0 note=64 velocity=51 time=1\n",
      "note_on channel=0 note=67 velocity=0 time=295\n",
      "note_on channel=0 note=67 velocity=67 time=9\n",
      "note_on channel=0 note=58 velocity=58 time=150\n",
      "note_on channel=0 note=79 velocity=0 time=140\n",
      "note_on channel=0 note=63 velocity=75 time=4\n",
      "note_on channel=0 note=51 velocity=66 time=1\n",
      "note_on channel=0 note=91 velocity=89 time=4\n",
      "note_on channel=0 note=79 velocity=85 time=1\n",
      "note_on channel=0 note=43 velocity=0 time=0\n",
      "note_on channel=0 note=64 velocity=0 time=0\n",
      "note_on channel=0 note=76 velocity=0 time=1\n",
      "note_on channel=0 note=77 velocity=0 time=0\n",
      "note_on channel=0 note=52 velocity=0 time=0\n",
      "note_on channel=0 note=60 velocity=0 time=1\n",
      "note_on channel=0 note=67 velocity=0 time=0\n",
      "note_on channel=0 note=62 velocity=0 time=0\n",
      "note_on channel=0 note=55 velocity=0 time=1\n",
      "control_change channel=0 control=64 value=0 time=7\n",
      "note_on channel=0 note=36 velocity=0 time=3\n",
      "control_change channel=0 control=64 value=127 time=115\n",
      "note_on channel=0 note=86 velocity=83 time=34\n",
      "note_on channel=0 note=91 velocity=0 time=28\n",
      "note_on channel=0 note=91 velocity=69 time=7\n",
      "note_on channel=0 note=86 velocity=0 time=54\n",
      "note_on channel=0 note=86 velocity=70 time=5\n",
      "note_on channel=0 note=79 velocity=0 time=41\n",
      "note_on channel=0 note=79 velocity=85 time=11\n",
      "note_on channel=0 note=67 velocity=60 time=127\n",
      "note_on channel=0 note=74 velocity=69 time=0\n",
      "note_on channel=0 note=67 velocity=0 time=139\n",
      "note_on channel=0 note=67 velocity=73 time=9\n",
      "note_on channel=0 note=79 velocity=0 time=137\n",
      "note_on channel=0 note=79 velocity=87 time=10\n",
      "note_on channel=0 note=58 velocity=0 time=128\n",
      "note_on channel=0 note=46 velocity=63 time=4\n",
      "note_on channel=0 note=58 velocity=58 time=7\n",
      "note_on channel=0 note=53 velocity=59 time=2\n",
      "note_on channel=0 note=51 velocity=0 time=12\n",
      "control_change channel=0 control=64 value=0 time=3\n",
      "note_on channel=0 note=74 velocity=0 time=5\n",
      "control_change channel=0 control=64 value=127 time=98\n",
      "note_on channel=0 note=74 velocity=51 time=26\n",
      "note_on channel=0 note=91 velocity=0 time=4\n",
      "note_on channel=0 note=79 velocity=0 time=31\n",
      "note_on channel=0 note=79 velocity=68 time=7\n",
      "note_on channel=0 note=86 velocity=0 time=39\n",
      "note_on channel=0 note=74 velocity=0 time=8\n",
      "note_on channel=0 note=74 velocity=57 time=10\n",
      "note_on channel=0 note=67 velocity=0 time=44\n",
      "note_on channel=0 note=67 velocity=65 time=10\n",
      "note_on channel=0 note=53 velocity=0 time=135\n",
      "note_on channel=0 note=53 velocity=54 time=5\n",
      "note_on channel=0 note=62 velocity=66 time=7\n",
      "note_on channel=0 note=55 velocity=58 time=137\n",
      "note_on channel=0 note=62 velocity=0 time=90\n",
      "note_on channel=0 note=62 velocity=57 time=6\n",
      "note_on channel=0 note=67 velocity=0 time=93\n",
      "note_on channel=0 note=67 velocity=70 time=11\n",
      "note_on channel=0 note=55 velocity=0 time=135\n",
      "note_on channel=0 note=43 velocity=37 time=1\n",
      "note_on channel=0 note=36 velocity=41 time=2\n",
      "note_on channel=0 note=52 velocity=44 time=0\n",
      "note_on channel=0 note=64 velocity=55 time=6\n",
      "note_on channel=0 note=55 velocity=41 time=2\n",
      "note_on channel=0 note=63 velocity=0 time=28\n",
      "note_on channel=0 note=53 velocity=0 time=1\n",
      "note_on channel=0 note=74 velocity=0 time=1\n",
      "note_on channel=0 note=58 velocity=0 time=0\n",
      "note_on channel=0 note=46 velocity=0 time=0\n",
      "control_change channel=0 control=64 value=0 time=1\n",
      "note_on channel=0 note=62 velocity=0 time=0\n",
      "note_on channel=0 note=79 velocity=0 time=27\n",
      "note_on channel=0 note=36 velocity=0 time=2174\n",
      "note_on channel=0 note=43 velocity=0 time=0\n",
      "note_on channel=0 note=52 velocity=0 time=0\n",
      "note_on channel=0 note=55 velocity=0 time=0\n",
      "note_on channel=0 note=64 velocity=0 time=0\n",
      "note_on channel=0 note=67 velocity=0 time=0\n",
      "MetaMessage('end_of_track', time=1)\n"
     ]
    }
   ],
   "source": [
    "# Path to your MIDI file\n",
    "midi_file_path = r'D:\\BrownUniversity\\CS2470\\final_proj\\CS2470_final\\data\\test\\Q1_0vLPYiPN7qY_0.mid'\n",
    "\n",
    "# Load the MIDI file\n",
    "mid = mido.MidiFile(midi_file_path)\n",
    "\n",
    "# Iterate over all messages in all tracks\n",
    "for i, track in enumerate(mid.tracks):\n",
    "    print(f'Track {i}: {track.name}')\n",
    "    for msg in track:\n",
    "        print(msg)\n",
    "        \n",
    "song_list =  get_song_msg(mid)\n"
   ]
  },
  {
   "cell_type": "code",
   "execution_count": 26,
   "id": "b787f952",
   "metadata": {},
   "outputs": [],
   "source": [
    "output_file = \"output_2.mid\"\n",
    "get_midi(song_list[:200], output_file)"
   ]
  },
  {
   "cell_type": "code",
   "execution_count": 28,
   "id": "b2ef0780",
   "metadata": {},
   "outputs": [
    {
     "data": {
      "text/plain": [
       "[[55, 0, 118],\n",
       " [55, 81, 8],\n",
       " [36, 54, 2],\n",
       " [52, 61, 2],\n",
       " [43, 53, 0],\n",
       " [64, 64, 2],\n",
       " [53, 0, 52],\n",
       " [74, 0, 3],\n",
       " [58, 0, 0],\n",
       " [86, 0, 0],\n",
       " [91, 0, 0],\n",
       " [67, 0, 1],\n",
       " [51, 0, 1],\n",
       " [62, 0, 1],\n",
       " [63, 0, 5],\n",
       " [46, 0, 8],\n",
       " [79, 0, 0],\n",
       " [60, 61, 77],\n",
       " [52, 0, 169],\n",
       " [55, 0, 8],\n",
       " [52, 44, 2],\n",
       " [55, 37, 3],\n",
       " [55, 0, 164],\n",
       " [55, 43, 4],\n",
       " [55, 0, 141],\n",
       " [60, 0, 0],\n",
       " [67, 56, 6],\n",
       " [55, 50, 0],\n",
       " [76, 68, 1],\n",
       " [60, 57, 1],\n",
       " [60, 0, 154],\n",
       " [67, 0, 0],\n",
       " [76, 0, 0],\n",
       " [76, 95, 6],\n",
       " [60, 76, 3],\n",
       " [67, 83, 1],\n",
       " [36, 0, 13],\n",
       " [43, 0, 12],\n",
       " [62, 61, 93],\n",
       " [77, 71, 12]]"
      ]
     },
     "execution_count": 28,
     "metadata": {},
     "output_type": "execute_result"
    }
   ],
   "source": [
    "song_list[40:80]"
   ]
  },
  {
   "cell_type": "code",
   "execution_count": 24,
   "id": "905a615c",
   "metadata": {},
   "outputs": [
    {
     "name": "stdout",
     "output_type": "stream",
     "text": [
      "Track 0: \n",
      "MetaMessage('set_tempo', tempo=500000, time=0)\n",
      "note_on channel=0 note=63 velocity=65 time=151\n",
      "note_on channel=0 note=51 velocity=58 time=5\n",
      "note_on channel=0 note=91 velocity=86 time=3\n",
      "note_on channel=0 note=79 velocity=76 time=5\n",
      "note_on channel=0 note=58 velocity=58 time=0\n",
      "note_on channel=0 note=86 velocity=73 time=149\n",
      "note_on channel=0 note=91 velocity=0 time=32\n",
      "note_on channel=0 note=91 velocity=60 time=6\n",
      "note_on channel=0 note=86 velocity=0 time=31\n",
      "note_on channel=0 note=86 velocity=76 time=4\n",
      "note_on channel=0 note=79 velocity=0 time=57\n",
      "note_on channel=0 note=79 velocity=72 time=6\n",
      "note_on channel=0 note=58 velocity=0 time=148\n",
      "note_on channel=0 note=74 velocity=82 time=6\n",
      "note_on channel=0 note=58 velocity=60 time=5\n",
      "note_on channel=0 note=67 velocity=54 time=0\n",
      "note_on channel=0 note=67 velocity=0 time=158\n",
      "note_on channel=0 note=67 velocity=75 time=4\n",
      "note_on channel=0 note=79 velocity=0 time=141\n",
      "note_on channel=0 note=79 velocity=87 time=10\n",
      "MetaMessage('end_of_track', time=0)\n"
     ]
    }
   ],
   "source": [
    "# Path to your MIDI file\n",
    "midi_file_path = r'D:\\BrownUniversity\\CS2470\\final_proj\\CS2470_final\\code\\demo\\output_2.mid'\n",
    "\n",
    "# Load the MIDI file\n",
    "mid = mido.MidiFile(midi_file_path)\n",
    "\n",
    "# Iterate over all messages in all tracks\n",
    "for i, track in enumerate(mid.tracks):\n",
    "    print(f'Track {i}: {track.name}')\n",
    "    for msg in track:\n",
    "        print(msg)"
   ]
  },
  {
   "cell_type": "code",
   "execution_count": 2,
   "id": "efe08132",
   "metadata": {},
   "outputs": [],
   "source": [
    "import torch\n",
    "import torch.nn as nn\n",
    "import torch.nn.functional as F\n",
    "import torch.optim as optim\n",
    "from torch.utils.data import DataLoader, TensorDataset"
   ]
  },
  {
   "cell_type": "code",
   "execution_count": 12,
   "id": "bb77ba3c",
   "metadata": {},
   "outputs": [
    {
     "name": "stdout",
     "output_type": "stream",
     "text": [
      "tensor([[ 1,  4,  7, 10, 13]])\n",
      "tensor([[ 2,  5,  8, 11, 14]])\n",
      "tensor([[ 3,  6,  9, 12, 15]])\n",
      "tensor([[ 1,  4,  7, 10, 13,  2,  5,  8, 11, 14,  3,  6,  9, 12, 15]])\n"
     ]
    }
   ],
   "source": [
    "data = torch.tensor([[1, 2, 3, 4, 5, 6, 7, 8, 9, 10, 11, 12, 13,14,15]])\n",
    "\n",
    "# Separate the data into the desired pattern\n",
    "data_1 = data[:, ::3]   # Select every third element starting from the first\n",
    "data_2 = data[:, 1::3]  # Select every third element starting from the second\n",
    "data_3 = data[:, 2::3]  # Select every third element starting from the third\n",
    "\n",
    "# Concatenate the separated data along the second dimension to get the desired result\n",
    "separated_data = torch.cat((data_1, data_2, data_3), dim=1)\n",
    "\n",
    "print(data_1)\n",
    "print(data_2)\n",
    "print(data_3)\n",
    "print(separated_data)\n"
   ]
  },
  {
   "cell_type": "code",
   "execution_count": 18,
   "id": "f23c431b",
   "metadata": {},
   "outputs": [
    {
     "name": "stdout",
     "output_type": "stream",
     "text": [
      "tensor([[ 1,  4,  7, 10],\n",
      "        [ 2,  5,  8, 11],\n",
      "        [ 3,  6,  9, 12]])\n",
      "Interleaved Tensor: tensor([ 1,  2,  3,  4,  5,  6,  7,  8,  9, 10, 11, 12])\n"
     ]
    }
   ],
   "source": [
    "# Given tensors\n",
    "tensor1 = torch.tensor([[1, 4, 7, 10]])\n",
    "tensor2 = torch.tensor([[2, 5, 8, 11]])\n",
    "tensor3 = torch.tensor([[3, 6, 9, 12]])\n",
    "\n",
    "# Stack the tensors\n",
    "stacked_tensor = torch.stack((tensor1, tensor2, tensor3), dim=1)\n",
    "stacked_tensor = stacked_tensor.squeeze()\n",
    "print(stacked_tensor)\n",
    "# Reshape to interleave elements\n",
    "desired_order = stacked_tensor.t().flatten()\n",
    "print(\"Interleaved Tensor:\", desired_order)\n"
   ]
  },
  {
   "cell_type": "code",
   "execution_count": 3,
   "id": "f6c191c2",
   "metadata": {},
   "outputs": [
    {
     "name": "stdout",
     "output_type": "stream",
     "text": [
      "tensor([1, 2, 3, 4])\n"
     ]
    }
   ],
   "source": [
    "def convert_reco(reconstruction):\n",
    "    notes = reconstruction[::3] \n",
    "    velocity = reconstruction[1::3]  \n",
    "    time = reconstruction[2::3]  \n",
    "    return notes,velocity,time\n",
    "\n",
    "def comb_reco(notes,velocity,time):\n",
    "    stacked_tensor = torch.stack((notes, velocity, time), dim=1)\n",
    "    reconstruction = stacked_tensor.reshape(-1)\n",
    "    return reconstruction"
   ]
  },
  {
   "cell_type": "code",
   "execution_count": 9,
   "id": "2dca2e5a",
   "metadata": {},
   "outputs": [
    {
     "name": "stdout",
     "output_type": "stream",
     "text": [
      "tensor([[1., 2., 3., 4., 5., 6., 7., 8., 9.]])\n"
     ]
    }
   ],
   "source": [
    "data = [[1,2,3],[4,5,6],[7,8,9]]\n",
    "data = torch.tensor(data)\n",
    "data = data.view(-1, 9).to(torch.float32)\n",
    "print(data)"
   ]
  },
  {
   "cell_type": "code",
   "execution_count": 4,
   "id": "ff26cccc",
   "metadata": {},
   "outputs": [
    {
     "name": "stdout",
     "output_type": "stream",
     "text": [
      "tensor([106.0667,  21.0000,  66.4333,  69.5267, 108.0000,  73.7800,  84.4133])\n"
     ]
    }
   ],
   "source": [
    "\n",
    "def min_max_normalize(tensor, min_value, max_value):\n",
    "    min_val = tensor.min()\n",
    "    max_val = tensor.max()\n",
    "    normalized_tensor = min_value + (tensor - min_val) * (max_value - min_value) / (max_val - min_val)\n",
    "    return normalized_tensor\n",
    "\n",
    "velocity = torch.tensor([190,-250,-15, 1, 200, 23, 78], dtype=torch.float32)\n",
    "normalized_velocity = min_max_normalize(velocity, 21, 108)\n",
    "\n",
    "print(normalized_velocity)\n",
    "\n"
   ]
  },
  {
   "cell_type": "code",
   "execution_count": null,
   "id": "94fc4c6e",
   "metadata": {},
   "outputs": [],
   "source": [
    "data = [25,78,91,23,45,67,60,-12,78,-43]\n",
    "# random extract half of the data elements\n",
    "# random "
   ]
  }
 ],
 "metadata": {
  "kernelspec": {
   "display_name": "Python 3 (ipykernel)",
   "language": "python",
   "name": "python3"
  },
  "language_info": {
   "codemirror_mode": {
    "name": "ipython",
    "version": 3
   },
   "file_extension": ".py",
   "mimetype": "text/x-python",
   "name": "python",
   "nbconvert_exporter": "python",
   "pygments_lexer": "ipython3",
   "version": "3.10.9"
  },
  "toc": {
   "base_numbering": 1,
   "nav_menu": {},
   "number_sections": true,
   "sideBar": true,
   "skip_h1_title": false,
   "title_cell": "Table of Contents",
   "title_sidebar": "Contents",
   "toc_cell": false,
   "toc_position": {},
   "toc_section_display": true,
   "toc_window_display": false
  }
 },
 "nbformat": 4,
 "nbformat_minor": 5
}
